<svg width="48" height="48" viewBox="0 0 48 48" fill="none" xmlns="http://www.w3.org/2000/svg">
<path d="M24 0C19.2533 0 14.6131 1.40758 10.6663 4.04473C6.71954 6.68188 3.64341 10.4302 1.8269 14.8156C0.0103989 19.201 -0.464881 24.0266 0.461164 28.6822C1.38721 33.3377 3.67299 37.6141 7.02945 40.9706C10.3859 44.327 14.6623 46.6128 19.3178 47.5388C23.9734 48.4649 28.799 47.9896 33.1844 46.1731C37.5698 44.3566 41.3181 41.2805 43.9553 37.3337C46.5924 33.3869 48 28.7468 48 24C48 17.6348 45.4714 11.5303 40.9706 7.02944C36.4697 2.52856 30.3652 0 24 0V0ZM24 8C25.2856 8 26.5423 8.38122 27.6112 9.09545C28.6801 9.80968 29.5133 10.8248 30.0052 12.0126C30.4972 13.2003 30.6259 14.5072 30.3751 15.7681C30.1243 17.029 29.5052 18.1872 28.5962 19.0962C27.6872 20.0052 26.529 20.6243 25.2681 20.8751C24.0072 21.1259 22.7003 20.9972 21.5126 20.5052C20.3249 20.0132 19.3097 19.1801 18.5955 18.1112C17.8812 17.0423 17.5 15.7856 17.5 14.5C17.5 12.7761 18.1848 11.1228 19.4038 9.90381C20.6228 8.68482 22.2761 8 24 8ZM36.23 34.32C34.7281 36.1005 32.8555 37.5316 30.7431 38.5133C28.6307 39.495 26.3294 40.0037 24 40.0037C21.6706 40.0037 19.3693 39.495 17.2569 38.5133C15.1445 37.5316 13.2719 36.1005 11.77 34.32C11.3989 33.8573 11.1732 33.2949 11.1216 32.704C11.07 32.113 11.1947 31.5201 11.48 31C12.7609 28.8297 14.5947 27.0383 16.7943 25.8085C18.9938 24.5787 21.4804 23.9546 24 24C26.5196 23.9546 29.0062 24.5787 31.2058 25.8085C33.4053 27.0383 35.2392 28.8297 36.52 31C36.8053 31.5201 36.93 32.113 36.8784 32.704C36.8268 33.2949 36.6012 33.8573 36.23 34.32Z" fill="#343090"/>
</svg>
