<svg width="40" height="40" viewBox="0 0 40 40" fill="none" xmlns="http://www.w3.org/2000/svg">
<path fill-rule="evenodd" clip-rule="evenodd" d="M20 0C8.95433 0 0 8.95433 0 20C0 31.0457 8.95433 40 20 40C31.0457 40 40 31.0457 40 20C40 8.95433 31.0457 0 20 0ZM15.6028 9.39775C16.7405 9.346 17.1041 9.33333 20.001 9.33333H19.9977C22.8955 9.33333 23.2577 9.346 24.3955 9.39775C25.5311 9.44975 26.3066 9.62958 26.9867 9.89333C27.6888 10.1656 28.2822 10.53 28.8755 11.1233C29.4689 11.7162 29.8333 12.3113 30.1067 13.0129C30.3689 13.6912 30.5489 14.4663 30.6022 15.6018C30.6533 16.7397 30.6667 17.1032 30.6667 20.0001C30.6667 22.897 30.6533 23.2597 30.6022 24.3975C30.5489 25.5326 30.3689 26.3079 30.1067 26.9864C29.8333 27.6877 29.4689 28.2828 28.8755 28.8758C28.2828 29.4691 27.6887 29.8344 26.9873 30.1069C26.3086 30.3707 25.5326 30.5504 24.3971 30.6024C23.2593 30.6542 22.8968 30.6669 19.9997 30.6669C17.103 30.6669 16.7397 30.6542 15.6018 30.6024C14.4665 30.5504 13.6912 30.3707 13.0125 30.1069C12.3113 29.8344 11.7162 29.4691 11.1236 28.8758C10.5304 28.2828 10.166 27.6877 9.89333 26.9862C9.62975 26.3079 9.45 25.5328 9.39775 24.3972C9.34625 23.2595 9.33333 22.897 9.33333 20.0001C9.33333 17.1032 9.34667 16.7394 9.39758 15.6016C9.44867 14.4665 9.62867 13.6912 9.89308 13.0127C10.1664 12.3113 10.5309 11.7162 11.1242 11.1233C11.7172 10.5302 12.3123 10.1657 13.0138 9.89333C13.6921 9.62958 14.4672 9.44975 15.6028 9.39775Z" fill="#343090"/>
</svg>
