<svg width="281" height="65" viewBox="0 0 281 65" fill="none" xmlns="http://www.w3.org/2000/svg">
<path d="M115.524 40.7865C115.524 40.7865 128.743 34.6838 137.199 30.7651C137.199 30.7651 137.784 30.3862 138.404 30.7519C139.024 31.1173 138.974 31.7341 138.974 31.7341V47.4953C138.974 47.7819 138.859 48.0687 138.627 48.2981C135.616 51.3371 132.142 53.7454 128.263 55.4083C124.268 57.1857 119.983 58.0459 115.582 58.0459C111.182 58.0459 106.897 57.1285 102.902 55.4083C101.628 54.8349 100.354 54.2041 99.1385 53.4586C98.5594 53.172 98.3857 52.4265 98.7331 51.9105C99.0227 51.3371 99.7753 51.165 100.296 51.509C101.396 52.1399 102.555 52.7705 103.771 53.2866C107.476 54.8921 111.471 55.6949 115.524 55.6949C119.577 55.6949 123.573 54.8921 127.336 53.2866C130.752 51.7958 133.879 49.6742 136.6 46.9792V33.5042L116.046 43.0801C115.872 43.1373 115.698 43.1948 115.524 43.1948C115.351 43.1948 115.177 43.1373 115.003 43.0801L99.1964 35.7405C98.6173 35.4537 98.3278 34.7656 98.6173 34.1922C98.9069 33.6188 99.6015 33.3323 100.181 33.6188L115.524 40.7865Z" fill="#343090"/>
<path d="M157.856 21.2801L115.958 1.64468C115.669 1.47232 115.265 1.47232 114.976 1.64468L73.0201 21.2801C72.6156 21.4525 72.3844 21.8544 72.3844 22.3136C72.3844 22.773 72.6156 23.1749 73.0201 23.3471L87.2364 30.0073C87.8144 30.2943 88.5079 30.0073 88.7968 29.433C89.0859 28.8589 88.7968 28.1699 88.2191 27.8829L76.1986 22.2564L115.438 3.99866L154.62 22.3136L142.137 28.1699C141.559 28.4569 141.328 29.1459 141.559 29.72C141.733 30.1219 142.195 30.3518 142.6 30.3518C142.773 30.3518 142.946 30.2943 143.12 30.2369L157.856 23.3471C158.261 23.1749 158.492 22.773 158.492 22.3136C158.492 21.8544 158.261 21.4525 157.856 21.2801Z" fill="#343090"/>
<path d="M116.462 20.4279C116.751 21.0018 116.52 21.6905 115.942 21.9776L94.5008 32.4221V62.6084C94.5008 63.2397 93.9807 63.7561 93.3451 63.7561C92.7093 63.7561 92.1892 63.2397 92.1892 62.6084V55.3526V31.2761C92.1892 31.2761 92.1885 31.0823 92.3657 30.9589C92.5428 30.8356 92.5959 30.818 92.5959 30.818L114.902 19.9116C115.479 19.6245 116.173 19.8541 116.462 20.4279Z" fill="#343090"/>
<path d="M187.207 35.6126C190.581 33.9813 192.676 31.1807 192.676 27.1296V27.048C192.676 24.1931 191.805 22.1269 190.145 20.4683C188.214 18.5108 185.057 17.2872 180.133 17.2872H166.555V42.437H175.834V37.1351H177.82L186.608 50.5392H197.22L187.207 35.6126ZM183.425 27.8095C183.425 29.5224 182.064 30.5011 179.86 30.5011H175.834V25.0634H179.888C182.037 25.0634 183.425 25.9334 183.425 27.7279V27.8095Z" fill="#343090"/>
<path d="M258.386 16.6891C251.856 16.6891 246.468 20.414 244.264 25.7159C244.019 23.5406 243.203 21.8549 241.788 20.4683C239.829 18.5108 236.7 17.2872 231.775 17.2872H218.198V39.6095L208.784 17.097H199.56L190.907 37.7605L194.036 42.437H227.476V37.1351H229.463L232.972 42.437H243.503L238.822 35.6126C240.727 34.6881 242.196 33.4102 243.149 31.7518C243.285 36.1019 245.353 39.9083 248.591 42.437H267.909C271.337 39.7996 273.46 35.7485 273.46 31.1807V31.0991C273.514 23.0514 266.957 16.6891 258.386 16.6891ZM201.247 35.5855L204.104 28.0268L206.934 35.5855H201.247ZM235.068 27.8092C235.068 29.5223 233.707 30.5011 231.503 30.5011H227.504V25.0634H231.558C233.707 25.0634 235.095 25.9334 235.095 27.7279V27.8092H235.068ZM264.154 31.2624C264.154 34.5251 261.923 37.4613 258.386 37.4613C254.821 37.4613 252.536 34.4977 252.536 31.1807V31.0991C252.536 27.8366 254.767 24.9001 258.304 24.9001C261.869 24.9001 264.154 27.8637 264.154 31.1807V31.2624Z" fill="#343090"/>
<path d="M146.678 63.6663L150.533 55.1547H151.736L155.603 63.6663H154.326L150.885 55.8357H151.371L147.93 63.6663H146.678ZM148.319 61.5384L148.648 60.5656H153.439L153.791 61.5384H148.319Z" fill="#343090"/>
<path d="M161.464 63.7635C160.815 63.7635 160.215 63.6581 159.664 63.4474C159.121 63.2285 158.647 62.9245 158.242 62.5354C157.844 62.1382 157.532 61.6762 157.305 61.1493C157.078 60.6224 156.965 60.0428 156.965 59.4105C156.965 58.7782 157.078 58.1986 157.305 57.6717C157.532 57.1448 157.848 56.6868 158.254 56.2977C158.659 55.9005 159.133 55.5965 159.676 55.3857C160.228 55.1669 160.827 55.0574 161.476 55.0574C162.132 55.0574 162.736 55.1709 163.288 55.3979C163.847 55.6168 164.321 55.9451 164.71 56.3828L163.92 57.1488C163.596 56.8084 163.231 56.5571 162.826 56.395C162.42 56.2247 161.987 56.1396 161.525 56.1396C161.046 56.1396 160.6 56.2207 160.187 56.3828C159.782 56.5449 159.429 56.7719 159.129 57.0637C158.829 57.3556 158.594 57.7041 158.424 58.1094C158.262 58.5066 158.181 58.9403 158.181 59.4105C158.181 59.8807 158.262 60.3184 158.424 60.7237C158.594 61.1209 158.829 61.4654 159.129 61.7572C159.429 62.0491 159.782 62.276 160.187 62.4382C160.6 62.6003 161.046 62.6813 161.525 62.6813C161.987 62.6813 162.42 62.6003 162.826 62.4382C163.231 62.2679 163.596 62.0085 163.92 61.66L164.71 62.426C164.321 62.8637 163.847 63.1961 163.288 63.4231C162.736 63.65 162.128 63.7635 161.464 63.7635Z" fill="#343090"/>
<path d="M165.87 63.6663L169.725 55.1547H170.928L174.795 63.6663H173.518L170.077 55.8357H170.563L167.122 63.6663H165.87ZM167.512 61.5384L167.84 60.5656H172.631L172.983 61.5384H167.512Z" fill="#343090"/>
<path d="M176.971 63.6663V55.1547H180.558C181.466 55.1547 182.265 55.3331 182.954 55.6897C183.651 56.0464 184.19 56.5449 184.571 57.1853C184.96 57.8257 185.155 58.5675 185.155 59.4105C185.155 60.2535 184.96 60.9953 184.571 61.6356C184.19 62.276 183.651 62.7746 182.954 63.1312C182.265 63.4879 181.466 63.6663 180.558 63.6663H176.971ZM178.187 62.6084H180.485C181.191 62.6084 181.799 62.4747 182.309 62.2071C182.828 61.9396 183.229 61.5668 183.513 61.0885C183.797 60.6021 183.939 60.0428 183.939 59.4105C183.939 58.7701 183.797 58.2108 183.513 57.7325C183.229 57.2542 182.828 56.8814 182.309 56.6139C181.799 56.3463 181.191 56.2126 180.485 56.2126H178.187V62.6084Z" fill="#343090"/>
<path d="M189.034 58.8269H193.411V59.8604H189.034V58.8269ZM189.143 62.6084H194.104V63.6663H187.927V55.1547H193.934V56.2126H189.143V62.6084Z" fill="#343090"/>
<path d="M196.986 63.6663V55.1547H197.983L201.801 61.587H201.266L205.035 55.1547H206.032L206.044 63.6663H204.877L204.865 56.9908H205.145L201.789 62.6327H201.229L197.849 56.9908H198.153V63.6663H196.986Z" fill="#343090"/>
<path d="M211.565 63.6663V60.4076L211.845 61.1614L208.185 55.1547H209.486L212.562 60.2252H211.857L214.945 55.1547H216.149L212.501 61.1614L212.769 60.4076V63.6663H211.565Z" fill="#343090"/>
<path d="M224.928 63.6663L221.183 55.1547H222.496L225.937 63.0097H225.183L228.649 55.1547H229.865L226.132 63.6663H224.928Z" fill="#343090"/>
<path d="M231.859 63.6663V55.1547H233.075V63.6663H231.859Z" fill="#343090"/>
<path d="M236.54 63.6663V55.1547H240.127C241.035 55.1547 241.833 55.3331 242.522 55.6897C243.22 56.0464 243.759 56.5449 244.14 57.1853C244.529 57.8257 244.723 58.5675 244.723 59.4105C244.723 60.2535 244.529 60.9953 244.14 61.6356C243.759 62.276 243.22 62.7746 242.522 63.1312C241.833 63.4879 241.035 63.6663 240.127 63.6663H236.54ZM237.756 62.6084H240.054C240.759 62.6084 241.367 62.4747 241.878 62.2071C242.397 61.9396 242.798 61.5668 243.082 61.0885C243.365 60.6021 243.507 60.0428 243.507 59.4105C243.507 58.7701 243.365 58.2108 243.082 57.7325C242.798 57.2542 242.397 56.8814 241.878 56.6139C241.367 56.3463 240.759 56.2126 240.054 56.2126H237.756V62.6084Z" fill="#343090"/>
<path d="M248.602 58.8269H252.979V59.8604H248.602V58.8269ZM248.712 62.6084H253.673V63.6663H247.496V55.1547H253.502V56.2126H248.712V62.6084Z" fill="#343090"/>
<path d="M260.387 63.7635C259.739 63.7635 259.135 63.6541 258.575 63.4352C258.024 63.2164 257.546 62.9124 257.141 62.5233C256.735 62.1261 256.419 61.664 256.192 61.1371C255.965 60.6102 255.852 60.0347 255.852 59.4105C255.852 58.7863 255.965 58.2108 256.192 57.6839C256.419 57.157 256.735 56.6989 257.141 56.3098C257.546 55.9126 258.024 55.6046 258.575 55.3857C259.127 55.1669 259.731 55.0574 260.387 55.0574C261.036 55.0574 261.632 55.1669 262.175 55.3857C262.726 55.5965 263.204 55.9005 263.609 56.2977C264.023 56.6868 264.339 57.1448 264.558 57.6717C264.785 58.1986 264.898 58.7782 264.898 59.4105C264.898 60.0428 264.785 60.6224 264.558 61.1493C264.339 61.6762 264.023 62.1382 263.609 62.5354C263.204 62.9245 262.726 63.2285 262.175 63.4474C261.632 63.6581 261.036 63.7635 260.387 63.7635ZM260.387 62.6813C260.857 62.6813 261.291 62.6003 261.688 62.4382C262.094 62.276 262.442 62.0491 262.734 61.7572C263.034 61.4573 263.265 61.1087 263.427 60.7115C263.597 60.3143 263.682 59.8807 263.682 59.4105C263.682 58.9403 263.597 58.5066 263.427 58.1094C263.265 57.7122 263.034 57.3677 262.734 57.0759C262.442 56.776 262.094 56.5449 261.688 56.3828C261.291 56.2207 260.857 56.1396 260.387 56.1396C259.909 56.1396 259.467 56.2207 259.062 56.3828C258.665 56.5449 258.316 56.776 258.016 57.0759C257.716 57.3677 257.481 57.7122 257.311 58.1094C257.149 58.5066 257.068 58.9403 257.068 59.4105C257.068 59.8807 257.149 60.3143 257.311 60.7115C257.481 61.1087 257.716 61.4573 258.016 61.7572C258.316 62.0491 258.665 62.276 259.062 62.4382C259.467 62.6003 259.909 62.6813 260.387 62.6813Z" fill="#343090"/>
<path d="M270.151 63.7635C269.503 63.7635 268.883 63.6663 268.291 63.4717C267.699 63.269 267.233 63.0096 266.892 62.6935L267.342 61.7451C267.667 62.0288 268.08 62.2639 268.583 62.4503C269.085 62.6368 269.608 62.73 270.151 62.73C270.646 62.73 271.047 62.6732 271.355 62.5598C271.663 62.4463 271.89 62.2922 272.036 62.0977C272.182 61.895 272.255 61.6681 272.255 61.4168C272.255 61.125 272.157 60.8899 271.963 60.7115C271.776 60.5332 271.529 60.3913 271.221 60.286C270.921 60.1725 270.589 60.0752 270.224 59.9941C269.859 59.9131 269.491 59.8199 269.118 59.7145C268.753 59.601 268.416 59.4591 268.108 59.2889C267.808 59.1187 267.565 58.8917 267.379 58.608C267.192 58.3161 267.099 57.9433 267.099 57.4893C267.099 57.0516 267.213 56.6503 267.44 56.2855C267.675 55.9127 268.031 55.6168 268.51 55.3979C268.996 55.1709 269.612 55.0574 270.358 55.0574C270.852 55.0574 271.343 55.1223 271.829 55.252C272.316 55.3817 272.737 55.5681 273.094 55.8113L272.692 56.7841C272.328 56.5409 271.943 56.3666 271.537 56.2612C271.132 56.1477 270.739 56.091 270.358 56.091C269.88 56.091 269.486 56.1518 269.178 56.2734C268.87 56.395 268.643 56.5571 268.497 56.7597C268.36 56.9624 268.291 57.1894 268.291 57.4407C268.291 57.7406 268.384 57.9797 268.57 58.1581C268.765 58.3364 269.012 58.4783 269.312 58.5836C269.62 58.689 269.957 58.7863 270.321 58.8755C270.686 58.9565 271.051 59.0498 271.416 59.1551C271.789 59.2605 272.125 59.3983 272.425 59.5686C272.733 59.7388 272.98 59.9658 273.167 60.2495C273.353 60.5332 273.446 60.898 273.446 61.3438C273.446 61.7735 273.329 62.1747 273.094 62.5476C272.859 62.9124 272.494 63.2083 271.999 63.4352C271.513 63.6541 270.897 63.7635 270.151 63.7635Z" fill="#343090"/>
<path d="M1.408 37V25.08H2.688V35.8H7.968V37H1.408ZM13.748 37.192C12.9373 37.192 12.2013 37 11.54 36.616C10.8787 36.2213 10.3507 35.688 9.956 35.016C9.572 34.3333 9.38 33.56 9.38 32.696C9.38 31.8427 9.572 31.08 9.956 30.408C10.34 29.736 10.8573 29.208 11.508 28.824C12.1693 28.4293 12.916 28.232 13.748 28.232C14.58 28.232 15.3213 28.424 15.972 28.808C16.6333 29.192 17.1507 29.72 17.524 30.392C17.908 31.064 18.1 31.832 18.1 32.696C18.1 33.5707 17.9027 34.3493 17.508 35.032C17.1133 35.704 16.5853 36.232 15.924 36.616C15.2733 37 14.548 37.192 13.748 37.192ZM13.748 35.992C14.324 35.992 14.8413 35.848 15.3 35.56C15.7693 35.272 16.1373 34.8773 16.404 34.376C16.6813 33.8747 16.82 33.3147 16.82 32.696C16.82 32.0773 16.6813 31.5227 16.404 31.032C16.1373 30.5413 15.7693 30.152 15.3 29.864C14.8413 29.576 14.324 29.432 13.748 29.432C13.172 29.432 12.6493 29.576 12.18 29.864C11.7213 30.152 11.3533 30.5413 11.076 31.032C10.7987 31.5227 10.66 32.0773 10.66 32.696C10.66 33.3147 10.7987 33.8747 11.076 34.376C11.3533 34.8773 11.7213 35.272 12.18 35.56C12.6493 35.848 13.172 35.992 13.748 35.992ZM24.2804 40.52C23.6937 40.52 23.1497 40.4293 22.6484 40.248C22.1577 40.0667 21.731 39.816 21.3684 39.496C21.0164 39.1867 20.7444 38.824 20.5524 38.408L21.6564 37.816C21.827 38.2213 22.131 38.5733 22.5684 38.872C23.0057 39.1707 23.5657 39.32 24.2484 39.32C24.771 39.32 25.251 39.2187 25.6884 39.016C26.1257 38.8133 26.4777 38.5147 26.7444 38.12C27.011 37.7253 27.1444 37.24 27.1444 36.664V34.76L27.3364 34.936C27.0377 35.5547 26.595 36.0347 26.0084 36.376C25.4217 36.7067 24.7817 36.872 24.0884 36.872C23.2884 36.872 22.5684 36.68 21.9284 36.296C21.2884 35.912 20.7817 35.3947 20.4084 34.744C20.0457 34.0827 19.8644 33.352 19.8644 32.552C19.8644 31.7413 20.0457 31.0107 20.4084 30.36C20.7817 29.7093 21.283 29.192 21.9124 28.808C22.5524 28.424 23.2777 28.232 24.0884 28.232C24.7817 28.232 25.411 28.392 25.9764 28.712C26.5524 29.032 27.0057 29.464 27.3364 30.008L27.1444 30.344V28.424H28.3444V36.664C28.3444 37.4 28.1684 38.056 27.8164 38.632C27.475 39.2187 26.995 39.6773 26.3764 40.008C25.7684 40.3493 25.0697 40.52 24.2804 40.52ZM24.1524 35.672C24.707 35.672 25.2084 35.5333 25.6564 35.256C26.1044 34.968 26.4617 34.5893 26.7284 34.12C27.0057 33.64 27.1444 33.1173 27.1444 32.552C27.1444 31.9867 27.0057 31.4693 26.7284 31C26.4617 30.52 26.1044 30.1413 25.6564 29.864C25.2084 29.576 24.707 29.432 24.1524 29.432C23.587 29.432 23.075 29.576 22.6164 29.864C22.1577 30.1413 21.795 30.5147 21.5284 30.984C21.2724 31.4533 21.1444 31.976 21.1444 32.552C21.1444 33.1173 21.2724 33.64 21.5284 34.12C21.795 34.5893 22.1524 34.968 22.6004 35.256C23.059 35.5333 23.5764 35.672 24.1524 35.672ZM34.8261 37.192C34.0155 37.192 33.2795 37 32.6181 36.616C31.9568 36.2213 31.4288 35.688 31.0341 35.016C30.6501 34.3333 30.4581 33.56 30.4581 32.696C30.4581 31.8427 30.6501 31.08 31.0341 30.408C31.4181 29.736 31.9355 29.208 32.5861 28.824C33.2475 28.4293 33.9941 28.232 34.8261 28.232C35.6581 28.232 36.3995 28.424 37.0501 28.808C37.7115 29.192 38.2288 29.72 38.6021 30.392C38.9861 31.064 39.1781 31.832 39.1781 32.696C39.1781 33.5707 38.9808 34.3493 38.5861 35.032C38.1915 35.704 37.6635 36.232 37.0021 36.616C36.3515 37 35.6261 37.192 34.8261 37.192ZM34.8261 35.992C35.4021 35.992 35.9195 35.848 36.3781 35.56C36.8475 35.272 37.2155 34.8773 37.4821 34.376C37.7595 33.8747 37.8981 33.3147 37.8981 32.696C37.8981 32.0773 37.7595 31.5227 37.4821 31.032C37.2155 30.5413 36.8475 30.152 36.3781 29.864C35.9195 29.576 35.4021 29.432 34.8261 29.432C34.2501 29.432 33.7275 29.576 33.2581 29.864C32.7995 30.152 32.4315 30.5413 32.1541 31.032C31.8768 31.5227 31.7381 32.0773 31.7381 32.696C31.7381 33.3147 31.8768 33.8747 32.1541 34.376C32.4315 34.8773 32.7995 35.272 33.2581 35.56C33.7275 35.848 34.2501 35.992 34.8261 35.992Z" fill="#555555"/>
</svg>
